<svg width="339" height="339" viewBox="0 0 339 339" fill="none" xmlns="http://www.w3.org/2000/svg">
<g filter="url(#filter0_d_2_156)">
<path d="M226 45.6238C236.029 34.0413 248.741 28.25 264.138 28.25C276.991 28.25 287.726 32.9113 296.625 42.375C305.524 51.8388 310.185 62.5738 310.75 74.8625C310.75 84.75 306.089 96.1913 296.625 109.61C287.161 123.029 277.98 134.188 268.799 143.369C259.618 152.409 245.351 165.828 226 183.625C206.366 165.828 191.959 152.409 182.777 143.369C173.596 134.329 164.274 123.029 154.951 109.61C145.629 96.1913 141.25 84.75 141.25 74.8625C141.25 62.0088 145.77 51.2738 154.951 42.375C164.132 33.4763 175.15 28.815 188.004 28.25C203.118 28.25 215.689 34.0413 226 45.6238ZM310.75 268.375V282.5L197.75 317.813L98.875 290.41V310.75H14.125V155.375H126.701L213.711 187.863C221.465 190.787 228.144 196.002 232.862 202.814C237.58 209.627 240.113 217.713 240.125 226H268.375C291.823 226 310.75 244.928 310.75 268.375ZM70.625 282.5V183.625H42.375V282.5H70.625ZM281.087 262.301C278.827 257.64 273.884 254.25 268.375 254.25H192.806C185.179 254.25 177.692 253.12 170.489 250.719L136.871 239.56L145.77 212.723L179.387 223.881C183.625 225.294 211.875 226 211.875 226C211.875 220.774 208.626 216.113 203.824 214.276L121.616 183.625H98.875V261.313L197.326 288.291L281.087 262.301Z" fill="#EBF3F4"/>
</g>
<defs>
<filter id="filter0_d_2_156" x="-55.875" y="-41.75" width="436.625" height="429.562" filterUnits="userSpaceOnUse" color-interpolation-filters="sRGB">
<feFlood flood-opacity="0" result="BackgroundImageFix"/>
<feColorMatrix in="SourceAlpha" type="matrix" values="0 0 0 0 0 0 0 0 0 0 0 0 0 0 0 0 0 0 127 0" result="hardAlpha"/>
<feOffset/>
<feGaussianBlur stdDeviation="35"/>
<feComposite in2="hardAlpha" operator="out"/>
<feColorMatrix type="matrix" values="0 0 0 0 0.0329861 0 0 0 0 0.285147 0 0 0 0 0.316667 0 0 0 0.04 0"/>
<feBlend mode="normal" in2="BackgroundImageFix" result="effect1_dropShadow_2_156"/>
<feBlend mode="normal" in="SourceGraphic" in2="effect1_dropShadow_2_156" result="shape"/>
</filter>
</defs>
</svg>
