<svg width="42" height="40" viewBox="0 0 42 40" fill="none" xmlns="http://www.w3.org/2000/svg">
<path d="M35.5827 10.6667C36.6877 10.6667 37.7476 11.1057 38.529 11.8871C39.3104 12.6685 39.7493 13.7283 39.7493 14.8333V28.9167C41.0202 30.0625 41.8327 31.7292 41.8327 33.5833C41.8327 37.0417 39.041 39.8333 35.5827 39.8333C32.1243 39.8333 29.3327 37.0417 29.3327 33.5833C29.3327 31.7292 30.1452 30.0625 31.416 28.9167V14.8333C31.416 12.5417 33.291 10.6667 35.5827 10.6667ZM35.5827 12.75C34.4368 12.75 33.4993 13.6875 33.4993 14.8333V16.9167H37.666V14.8333C37.666 13.6875 36.7285 12.75 35.5827 12.75ZM6.41602 35.6667V19H0.166016L20.9993 0.25L30.166 8.5C29.2481 9.27964 28.5114 10.2504 28.0077 11.3443C27.5039 12.4382 27.2451 13.629 27.2493 14.8333V27.3333C25.9368 29.0625 25.166 31.2292 25.166 33.5833L25.3743 35.6667H6.41602Z" fill="#90C6CD"/>
</svg>
