<svg width="42" height="40" viewBox="0 0 42 40" fill="none" xmlns="http://www.w3.org/2000/svg">
<path d="M41.8327 31.5C41.8327 33.7101 40.9547 35.8298 39.3919 37.3926C37.8291 38.9554 35.7095 39.8333 33.4993 39.8333H25.166C22.9559 39.8333 20.8363 38.9554 19.2735 37.3926C17.7107 35.8298 16.8327 33.7101 16.8327 31.5V27.3333H41.8327V31.5ZM4.33268 0.25H25.166C26.2711 0.25 27.3309 0.688987 28.1123 1.47039C28.8937 2.25179 29.3327 3.3116 29.3327 4.41667V23.1667H12.666V33.5833H4.33268C3.22761 33.5833 2.16781 33.1443 1.3864 32.3629C0.605002 31.5815 0.166016 30.5217 0.166016 29.4167V4.41667C0.166016 3.3116 0.605002 2.25179 1.3864 1.47039C2.16781 0.688987 3.22761 0.25 4.33268 0.25ZM4.33268 6.5V10.6667H8.49935V6.5H4.33268ZM25.166 10.6667V6.5H12.666V10.6667H25.166ZM4.33268 14.8333V19H8.49935V14.8333H4.33268ZM12.666 14.8333V19H25.166V14.8333H12.666ZM4.33268 23.1667V27.3333H8.49935V23.1667H4.33268Z" fill="#90C6CD"/>
</svg>
