<svg width="18" height="42" viewBox="0 0 18 42" fill="none" xmlns="http://www.w3.org/2000/svg">
<path d="M2.74935 4.33317C2.74935 2.02067 4.60352 0.166504 6.91602 0.166504C9.22852 0.166504 11.0827 2.02067 11.0827 4.33317C11.0827 6.64567 9.22852 8.49984 6.91602 8.49984C4.60352 8.49984 2.74935 6.64567 2.74935 4.33317ZM17.3327 23.0832C17.3327 20.2915 15.6035 17.8748 13.166 16.8332C13.166 15.1756 12.5075 13.5859 11.3354 12.4138C10.1633 11.2417 8.57362 10.5832 6.91602 10.5832C5.25841 10.5832 3.6687 11.2417 2.4966 12.4138C1.3245 13.5859 0.666016 15.1756 0.666016 16.8332V31.4165H4.83268V41.8332H11.0827V31.4165H17.3327V23.0832Z" fill="#90C6CD"/>
</svg>
